<svg xmlns="http://www.w3.org/2000/svg" viewBox="0 0 1204 183" role="img" aria-hidden="true" preserveAspectRatio="xMinYMin meet"><path fill="#171411" fill-rule="evenodd" d="M1197,169 L1196,170 L1195,170 L1193,172 L1193,176 L1195,178 L1200,178 L1201,177 L1201,176 L1202,175 L1202,173 L1201,172 L1201,171 L1200,170 L1198,170Z M1092,22 L1093,23 L1093,25 L1094,26 L1094,178 L1127,178 L1128,177 L1132,177 L1133,176 L1137,176 L1138,175 L1141,175 L1142,174 L1144,174 L1145,173 L1147,173 L1148,172 L1150,172 L1151,171 L1153,171 L1154,170 L1156,170 L1160,166 L1161,166 L1174,153 L1174,152 L1178,148 L1178,147 L1179,146 L1179,145 L1180,144 L1180,143 L1181,142 L1181,141 L1182,140 L1182,137 L1183,136 L1183,133 L1184,132 L1184,128 L1185,127 L1185,113 L1186,112 L1186,109 L1185,108 L1185,95 L1184,94 L1184,88 L1183,87 L1183,84 L1182,83 L1182,80 L1181,79 L1181,78 L1180,77 L1180,76 L1179,75 L1179,74 L1178,73 L1178,72 L1174,68 L1174,67 L1161,54 L1160,54 L1156,50 L1154,50 L1153,49 L1151,49 L1150,48 L1148,48 L1147,47 L1145,47 L1144,46 L1142,46 L1141,45 L1138,45 L1137,44 L1133,44 L1132,43 L1118,43 L1117,44 L1114,44 L1113,45 L1111,45 L1110,46 L1109,46 L1108,47 L1107,47 L1106,48 L1105,48 L1104,49 L1103,49 L1102,50 L1101,50 L1099,52 L1098,52 L1096,54 L1095,54 L1094,55 L1093,55 L1092,56Z"/></svg>