<svg xmlns="http://www.w3.org/2000/svg" viewBox="0 0 404.173 398.553" role="img" aria-hidden="true" preserveAspectRatio="xMinYMin meet"><g fill="#fbf7ef"><path d="M590 53C565 36 538 28 508 29H221V1434H102C116 1407 123 1377 123 1346V0H516C550 0 580 10 606 31L590 53Z" transform="translate(9.126,159.743) scale(0.0742716,-0.0742716)"/><path d="M678 0C663 22 652 52 645 90L408 1370C401 1406 372 1434 336 1434H244C259 1401 262 1360 254 1311L20 0H51L98 268H512L545 90C552 59 549 29 537 0H678ZM104 297 299 1395 301 1397C302 1397 303 1396 303 1395L506 297Z" transform="translate(55.622,159.743) scale(0.0742716,-0.0742716)"/><path d="M594 1405V1434H20V1405H258V88C258 57 251 27 238 0H377C363 27 356 57 356 88V1405Z" transform="translate(93.649,159.743) scale(0.0742716,-0.0742716)"/><path d="M221 1346C221 1377 228 1407 242 1434H102C116 1407 123 1377 123 1346V88C122 57 115 27 102 0H242C228 27 221 57 221 88V1346Z" transform="translate(139.253,159.743) scale(0.0742716,-0.0742716)"/><path d="M264 1370C252 1412 228 1433 193 1434H102C116 1407 123 1377 123 1346V0H152V1395H156L541 53C553 12 577 -8 614 -8C659 -8 682 12 682 51V1434H653V37C652 36 650 36 647 37L264 1370Z" transform="translate(164.802,159.743) scale(0.0742716,-0.0742716)"/><path d="M255 1236C112 1093 41 920 41 717C41 514 112 341 255 198C398 55 571 -16 774 -16C977 -16 1150 55 1293 198C1436 341 1507 514 1507 717C1507 920 1436 1093 1293 1236C1150 1379 977 1450 774 1450C571 1450 398 1379 255 1236ZM316 224C203 365 147 530 147 717C147 904 203 1068 316 1209C429 1350 581 1421 774 1421C967 1421 1119 1350 1232 1209C1345 1068 1401 904 1401 717C1401 530 1345 365 1232 224C1119 83 967 12 774 12C581 12 429 83 316 224Z" transform="translate(223.031,159.743) scale(0.0742716,-0.0742716)"/><path d="M553 1327C504 1408 426 1448 319 1448C242 1448 178 1425 129 1378C80 1331 55 1270 55 1196C55 1110 80 1027 131 948L416 510C477 417 508 331 508 252C508 182 493 125 462 81C431 36 385 14 322 14C257 14 208 37 175 82C142 127 125 184 125 252V293H20V242C20 169 48 109 105 60C162 11 234 -14 322 -14C409 -14 479 12 532 63C584 114 610 181 610 264C610 353 577 447 512 547L227 983C178 1059 154 1135 154 1210C154 1267 168 1317 196 1358C223 1399 264 1419 319 1419C399 1419 457 1377 494 1292Z" transform="translate(9.126,342.273) scale(0.0742716,-0.0742716)"/><path d="M594 1405V1434H20V1405H258V88C258 57 251 27 238 0H377C363 27 356 57 356 88V1405Z" transform="translate(55.919,342.273) scale(0.0742716,-0.0742716)"/><path d="M255 1236C112 1093 41 920 41 717C41 514 112 341 255 198C398 55 571 -16 774 -16C977 -16 1150 55 1293 198C1436 341 1507 514 1507 717C1507 920 1436 1093 1293 1236C1150 1379 977 1450 774 1450C571 1450 398 1379 255 1236ZM316 224C203 365 147 530 147 717C147 904 203 1068 316 1209C429 1350 581 1421 774 1421C967 1421 1119 1350 1232 1209C1345 1068 1401 904 1401 717C1401 530 1345 365 1232 224C1119 83 967 12 774 12C581 12 429 83 316 224Z" transform="translate(101.523,342.273) scale(0.0742716,-0.0742716)"/><path d="M645 309C645 468 566 585 410 618C486 644 547 692 593 762C639 831 662 916 662 1016C662 1145 628 1247 561 1322C493 1397 400 1434 281 1434H102C116 1407 123 1377 123 1346V0H221V598H297C464 598 547 507 547 324V94C547 29 599 -14 680 -14C657 10 645 47 645 96V309ZM221 1405H256C364 1405 441 1372 487 1305C532 1238 555 1141 555 1016C555 773 456 627 256 627H221Z" transform="translate(216.495,342.273) scale(0.0742716,-0.0742716)"/><path d="M221 1346C221 1377 228 1407 242 1434H102C116 1407 123 1377 123 1346V88C122 57 115 27 102 0H242C228 27 221 57 221 88V1346Z" transform="translate(273.015,342.273) scale(0.0742716,-0.0742716)"/><path d="M610 53C585 36 558 28 528 29H221V776H578V805H221V1405H578V1434H102C116 1407 123 1377 123 1346V0H537C571 0 601 10 627 31L610 53Z" transform="translate(298.714,342.273) scale(0.0742716,-0.0742716)"/><path d="M553 1327C504 1408 426 1448 319 1448C242 1448 178 1425 129 1378C80 1331 55 1270 55 1196C55 1110 80 1027 131 948L416 510C477 417 508 331 508 252C508 182 493 125 462 81C431 36 385 14 322 14C257 14 208 37 175 82C142 127 125 184 125 252V293H20V242C20 169 48 109 105 60C162 11 234 -14 322 -14C409 -14 479 12 532 63C584 114 610 181 610 264C610 353 577 447 512 547L227 983C178 1059 154 1135 154 1210C154 1267 168 1317 196 1358C223 1399 264 1419 319 1419C399 1419 457 1377 494 1292Z" transform="translate(348.254,342.273) scale(0.0742716,-0.0742716)"/></g></svg>